<svg width="151" height="28" viewBox="0 0 151 28" fill="none" xmlns="http://www.w3.org/2000/svg">
<path d="M19.3639 0H8.63616L0 8.63614V19.3638L8.63616 28H19.3639L28 19.3638V8.63614L19.3639 0ZM10.1205 19.4988L4.58796 13.9663L10.1205 8.43373C12.212 6.34217 15.653 6.34217 17.7446 8.43373L23.2771 13.9663L17.7446 19.4988C15.653 21.5904 12.2795 21.5904 10.1205 19.4988Z" fill="#F3F3F3"/>
<path d="M43.26 21V8.04H47.319C47.439 8.04 47.661 8.043 47.985 8.049C48.315 8.055 48.63 8.079 48.93 8.121C49.944 8.247 50.796 8.61 51.486 9.21C52.182 9.81 52.707 10.572 53.061 11.496C53.415 12.414 53.592 13.422 53.592 14.52C53.592 15.624 53.415 16.638 53.061 17.562C52.707 18.48 52.182 19.239 51.486 19.839C50.796 20.433 49.944 20.793 48.93 20.919C48.63 20.961 48.315 20.985 47.985 20.991C47.661 20.997 47.439 21 47.319 21H43.26ZM45.186 19.209H47.319C47.523 19.209 47.766 19.203 48.048 19.191C48.33 19.179 48.579 19.155 48.795 19.119C49.455 18.993 49.989 18.708 50.397 18.264C50.811 17.814 51.114 17.262 51.306 16.608C51.498 15.954 51.594 15.258 51.594 14.52C51.594 13.758 51.495 13.053 51.297 12.405C51.099 11.751 50.793 11.205 50.379 10.767C49.971 10.323 49.443 10.041 48.795 9.921C48.579 9.879 48.327 9.855 48.039 9.849C47.757 9.837 47.517 9.831 47.319 9.831H45.186V19.209ZM55.6877 21V11.28H57.3617V13.638L57.1277 13.332C57.2477 13.02 57.4037 12.735 57.5957 12.477C57.7877 12.213 58.0097 11.997 58.2617 11.829C58.5077 11.649 58.7807 11.511 59.0807 11.415C59.3867 11.313 59.6987 11.253 60.0167 11.235C60.3347 11.211 60.6407 11.226 60.9347 11.28V13.044C60.6167 12.96 60.2627 12.936 59.8727 12.972C59.4887 13.008 59.1347 13.131 58.8107 13.341C58.5047 13.539 58.2617 13.779 58.0817 14.061C57.9077 14.343 57.7817 14.658 57.7037 15.006C57.6257 15.348 57.5867 15.711 57.5867 16.095V21H55.6877ZM62.8287 9.687V7.86H64.7097V9.687H62.8287ZM62.8287 21V11.28H64.7097V21H62.8287ZM74.2343 21V16.221C74.2343 15.843 74.2013 15.456 74.1353 15.06C74.0753 14.658 73.9553 14.286 73.7753 13.944C73.6013 13.602 73.3523 13.326 73.0283 13.116C72.7103 12.906 72.2933 12.801 71.7773 12.801C71.4413 12.801 71.1233 12.858 70.8233 12.972C70.5233 13.08 70.2593 13.257 70.0313 13.503C69.8093 13.749 69.6323 14.073 69.5003 14.475C69.3743 14.877 69.3113 15.366 69.3113 15.942L68.1413 15.501C68.1413 14.619 68.3063 13.842 68.6363 13.17C68.9663 12.492 69.4403 11.964 70.0583 11.586C70.6763 11.208 71.4233 11.019 72.2993 11.019C72.9713 11.019 73.5353 11.127 73.9913 11.343C74.4473 11.559 74.8163 11.844 75.0983 12.198C75.3863 12.546 75.6053 12.927 75.7553 13.341C75.9053 13.755 76.0073 14.16 76.0613 14.556C76.1153 14.952 76.1423 15.3 76.1423 15.6V21H74.2343ZM67.4033 21V11.28H69.0863V14.088H69.3113V21H67.4033ZM78.4776 21L78.4866 8.04H80.3946V15.96L84.2106 11.28H86.6046L82.5726 16.14L87.0186 21H84.4626L80.3946 16.32V21H78.4776ZM91.5295 21V8.04H93.2305L97.9285 17.787L102.6 8.04H104.319V20.991H102.537V12.126L98.3515 21H97.4965L93.3025 12.126V21H91.5295ZM109.585 21.27C108.865 21.27 108.262 21.138 107.776 20.874C107.29 20.604 106.921 20.25 106.669 19.812C106.423 19.368 106.3 18.882 106.3 18.354C106.3 17.862 106.387 17.43 106.561 17.058C106.735 16.686 106.993 16.371 107.335 16.113C107.677 15.849 108.097 15.636 108.595 15.474C109.027 15.348 109.516 15.237 110.062 15.141C110.608 15.045 111.181 14.955 111.781 14.871C112.387 14.787 112.987 14.703 113.581 14.619L112.897 14.997C112.909 14.235 112.747 13.671 112.411 13.305C112.081 12.933 111.511 12.747 110.701 12.747C110.191 12.747 109.723 12.867 109.297 13.107C108.871 13.341 108.574 13.731 108.406 14.277L106.651 13.737C106.891 12.903 107.347 12.24 108.019 11.748C108.697 11.256 109.597 11.01 110.719 11.01C111.589 11.01 112.345 11.16 112.987 11.46C113.635 11.754 114.109 12.222 114.409 12.864C114.565 13.182 114.661 13.518 114.697 13.872C114.733 14.226 114.751 14.607 114.751 15.015V21H113.086V18.777L113.41 19.065C113.008 19.809 112.495 20.364 111.871 20.73C111.253 21.09 110.491 21.27 109.585 21.27ZM109.918 19.731C110.452 19.731 110.911 19.638 111.295 19.452C111.679 19.26 111.988 19.017 112.222 18.723C112.456 18.429 112.609 18.123 112.681 17.805C112.783 17.517 112.84 17.193 112.852 16.833C112.87 16.473 112.879 16.185 112.879 15.969L113.491 16.194C112.897 16.284 112.357 16.365 111.871 16.437C111.385 16.509 110.944 16.581 110.548 16.653C110.158 16.719 109.81 16.8 109.504 16.896C109.246 16.986 109.015 17.094 108.811 17.22C108.613 17.346 108.454 17.499 108.334 17.679C108.22 17.859 108.163 18.078 108.163 18.336C108.163 18.588 108.226 18.822 108.352 19.038C108.478 19.248 108.67 19.416 108.928 19.542C109.186 19.668 109.516 19.731 109.918 19.731ZM120.805 21.261C119.623 21.261 118.66 21 117.916 20.478C117.172 19.956 116.716 19.221 116.548 18.273L118.474 17.976C118.594 18.48 118.87 18.879 119.302 19.173C119.74 19.461 120.283 19.605 120.931 19.605C121.519 19.605 121.978 19.485 122.308 19.245C122.644 19.005 122.812 18.675 122.812 18.255C122.812 18.009 122.752 17.811 122.632 17.661C122.518 17.505 122.275 17.358 121.903 17.22C121.531 17.082 120.964 16.911 120.202 16.707C119.368 16.491 118.705 16.26 118.213 16.014C117.727 15.762 117.379 15.471 117.169 15.141C116.965 14.805 116.863 14.4 116.863 13.926C116.863 13.338 117.019 12.825 117.331 12.387C117.643 11.949 118.081 11.61 118.645 11.37C119.215 11.13 119.881 11.01 120.643 11.01C121.387 11.01 122.05 11.127 122.632 11.361C123.214 11.595 123.685 11.928 124.045 12.36C124.405 12.786 124.621 13.287 124.693 13.863L122.767 14.214C122.701 13.746 122.482 13.377 122.11 13.107C121.738 12.837 121.255 12.69 120.661 12.666C120.091 12.642 119.629 12.738 119.275 12.954C118.921 13.164 118.744 13.455 118.744 13.827C118.744 14.043 118.81 14.226 118.942 14.376C119.08 14.526 119.344 14.67 119.734 14.808C120.124 14.946 120.7 15.111 121.462 15.303C122.278 15.513 122.926 15.747 123.406 16.005C123.886 16.257 124.228 16.56 124.432 16.914C124.642 17.262 124.747 17.685 124.747 18.183C124.747 19.143 124.396 19.896 123.694 20.442C122.998 20.988 122.035 21.261 120.805 21.261ZM132.301 21C131.689 21.12 131.089 21.171 130.501 21.153C129.913 21.135 129.388 21.021 128.926 20.811C128.464 20.601 128.116 20.271 127.882 19.821C127.672 19.419 127.558 19.011 127.54 18.597C127.528 18.177 127.522 17.703 127.522 17.175V8.58H129.412V17.085C129.412 17.475 129.415 17.814 129.421 18.102C129.433 18.39 129.496 18.633 129.61 18.831C129.826 19.203 130.168 19.416 130.636 19.47C131.11 19.518 131.665 19.497 132.301 19.407V21ZM125.659 12.792V11.28H132.301V12.792H125.659ZM138.221 21.27C137.255 21.27 136.406 21.06 135.674 20.64C134.948 20.214 134.381 19.623 133.973 18.867C133.571 18.105 133.37 17.223 133.37 16.221C133.37 15.159 133.568 14.238 133.964 13.458C134.366 12.678 134.924 12.075 135.638 11.649C136.352 11.223 137.183 11.01 138.131 11.01C139.121 11.01 139.964 11.241 140.66 11.703C141.356 12.159 141.875 12.81 142.217 13.656C142.565 14.502 142.703 15.507 142.631 16.671H140.75V15.987C140.738 14.859 140.522 14.025 140.102 13.485C139.688 12.945 139.055 12.675 138.203 12.675C137.261 12.675 136.553 12.972 136.079 13.566C135.605 14.16 135.368 15.018 135.368 16.14C135.368 17.208 135.605 18.036 136.079 18.624C136.553 19.206 137.237 19.497 138.131 19.497C138.719 19.497 139.226 19.365 139.652 19.101C140.084 18.831 140.42 18.447 140.66 17.949L142.505 18.534C142.127 19.404 141.554 20.079 140.786 20.559C140.018 21.033 139.163 21.27 138.221 21.27ZM134.756 16.671V15.204H141.695V16.671H134.756ZM144.651 21V11.28H146.325V13.638L146.091 13.332C146.211 13.02 146.367 12.735 146.559 12.477C146.751 12.213 146.973 11.997 147.225 11.829C147.471 11.649 147.744 11.511 148.044 11.415C148.35 11.313 148.662 11.253 148.98 11.235C149.298 11.211 149.604 11.226 149.898 11.28V13.044C149.58 12.96 149.226 12.936 148.836 12.972C148.452 13.008 148.098 13.131 147.774 13.341C147.468 13.539 147.225 13.779 147.045 14.061C146.871 14.343 146.745 14.658 146.667 15.006C146.589 15.348 146.55 15.711 146.55 16.095V21H144.651Z" fill="#F3F3F3"/>
</svg>
