<svg width="44" height="44" viewBox="0 0 44 44" fill="none" xmlns="http://www.w3.org/2000/svg">
<g opacity="0.8">
<path fill-rule="evenodd" clip-rule="evenodd" d="M29.21 13.2499C28.02 13.1799 25.57 13.1099 21.86 13.1099H21.37C17.8 13.1099 15.42 13.1799 14.23 13.3199C12.62 13.4599 11.5 13.8799 10.87 14.4399C10.31 14.9299 9.88999 15.8399 9.74999 17.0299C9.67999 17.7999 9.60999 19.4099 9.60999 21.8599V22.2099C9.60999 24.5199 9.67998 26.1299 9.81998 26.8999C10.03 28.0199 10.38 28.8599 11.08 29.3499C11.78 29.9099 12.97 30.2599 14.65 30.3999C15.84 30.4699 18.29 30.5399 22 30.5399H22.49C26.06 30.5399 28.44 30.4699 29.63 30.3299C31.24 30.1899 32.36 29.7699 32.99 29.2099C33.55 28.7199 33.97 27.8099 34.11 26.6199C34.18 25.8499 34.25 24.2399 34.25 21.7899V21.4399C34.25 19.1299 34.18 17.5199 34.04 16.7499C33.83 15.6299 33.48 14.7899 32.78 14.2999C32.08 13.7399 30.89 13.3899 29.21 13.2499ZM26.48 21.8599L18.78 26.4799V17.2399L26.48 21.8599Z" fill="#F3F3F3"/>
</g>
<rect x="0.5" y="0.5" width="43" height="43" rx="9.5" stroke="#F3F3F3" stroke-opacity="0.2"/>
</svg>
