<svg xmlns="http://www.w3.org/2000/svg" width="89" height="91" viewBox="0 0 89 91" fill="none">
<path d="M34.7168 90.9317C34.3738 90.9317 34.0449 90.7951 33.8024 90.5518C33.5599 90.3085 33.4236 89.9785 33.4236 89.6345C33.4236 89.2904 33.5599 88.9604 33.8024 88.7172C34.0449 88.4739 34.3738 88.3372 34.7168 88.3372H49.4314V60.0294L17.8923 20.8109C17.7617 20.6142 17.6842 20.3868 17.6675 20.151C17.6508 19.9152 17.6954 19.679 17.7969 19.4657C17.8984 19.2524 18.0534 19.0692 18.2467 18.934C18.44 18.7987 18.665 18.7162 18.8996 18.6943H60.8247L68.2296 0.805667C68.334 0.572306 68.5016 0.373062 68.7134 0.230619C68.9252 0.0881765 69.1726 0.00826714 69.4274 0H69.6997L87.967 3.87815C88.1339 3.91094 88.2924 3.9775 88.4328 4.07376C88.5733 4.17002 88.6926 4.29396 88.7838 4.43803C88.8778 4.57899 88.9431 4.73727 88.9758 4.90368C89.0085 5.0701 89.008 5.24133 88.9743 5.40755C88.9032 5.69691 88.7396 5.95499 88.5086 6.14237C88.2775 6.32976 87.9917 6.43617 87.6948 6.44538H87.4362L70.2169 2.78573L63.6287 18.6807H82.6175C82.8605 18.6875 83.0972 18.7595 83.3031 18.8892C83.5089 19.0189 83.6764 19.2015 83.7881 19.4181C83.8838 19.6398 83.9191 19.8831 83.8904 20.123C83.8617 20.3629 83.77 20.5908 83.6248 20.7836L52.0177 60.084V88.3372H66.7323C66.9367 88.2698 67.1542 88.252 67.3668 88.2852C67.5794 88.3184 67.7812 88.4017 67.9555 88.5283C68.1298 88.6549 68.2718 88.8212 68.3696 89.0135C68.4675 89.2057 68.5185 89.4186 68.5185 89.6345C68.5185 89.8504 68.4675 90.0632 68.3696 90.2554C68.2718 90.4477 68.1298 90.614 67.9555 90.7406C67.7812 90.8672 67.5794 90.9505 67.3668 90.9837C67.1542 91.017 66.9367 90.9991 66.7323 90.9317H34.7168ZM50.7517 57.6124L71.1698 32.2542H58.075L51.9224 47.0977C51.816 47.3285 51.6475 47.5249 51.4359 47.6648C51.2243 47.8048 50.9779 47.8827 50.7245 47.8897C50.5563 47.8923 50.3895 47.8598 50.2345 47.7941C49.9278 47.6506 49.6854 47.3977 49.5545 47.0846C49.4237 46.7716 49.4137 46.4209 49.5267 46.1009L59.7765 21.3981H21.6628L28.3463 29.7006H49.5539L48.4513 32.2952H30.3745L50.7517 57.6124ZM62.5534 21.3845L59.1231 29.6597H73.2388L79.9223 21.3435L62.5534 21.3845Z" fill="#F3F3F3" fill-opacity="0.1"/>
<path d="M16.1116 34.8947C14.8634 34.8918 13.6196 34.7438 12.4043 34.4535C8.56254 33.5273 5.1881 31.1961 2.92128 27.9025C0.65446 24.6088 -0.347002 20.5818 0.106908 16.5856C0.560817 12.5893 2.43852 8.90193 5.38373 6.22302C8.32893 3.54411 12.1367 2.0601 16.0845 2.05261C17.3328 2.05482 18.5767 2.20286 19.7918 2.49383C22.3181 3.10595 24.662 4.3306 26.6242 6.06372C28.5865 7.79684 30.109 9.98718 31.0625 12.4485L31.2519 12.9173H28.5459L28.4511 12.7242C28.0722 11.9238 27.6191 11.162 27.0981 10.4493L26.584 9.71852L20.9013 15.468L20.6713 15.137C20.3223 14.6434 19.8974 14.2104 19.413 13.8548L19.0882 13.6204L24.7709 7.87099L24.0673 7.34705C21.8205 5.64423 19.101 4.71246 16.301 4.68605H15.4215L16.6528 12.7794H16.0575C15.7445 12.7801 15.4322 12.8078 15.1239 12.8621C14.9085 12.9026 14.696 12.9578 14.4879 13.0275L14.1091 13.1379L12.8779 5.0859L12.0525 5.34787C9.50211 6.15703 7.2459 7.72175 5.57154 9.84261L5.01679 10.5458L12.0255 14.5717L11.7684 14.8889C11.3875 15.3589 11.0858 15.8901 10.8754 16.4607L10.7401 16.8329L3.75849 12.7932L3.4473 13.6204C3.24609 14.1759 3.07445 14.742 2.93315 15.3163C2.42044 17.552 2.45763 19.8822 3.04139 22.0998L3.2714 22.9546L10.5236 19.5905L10.6318 19.9765C10.795 20.5661 11.0509 21.1249 11.3895 21.631L11.606 21.9757L4.28617 25.3123L4.77326 26.0569C6.15907 28.21 8.10888 29.9246 10.4018 31.0066L11.2001 31.3651L13.3514 23.4786L13.7167 23.6578C14.2594 23.917 14.8397 24.0846 15.4351 24.1542H15.8274L13.6761 32.0269L14.5421 32.1234C15.0491 32.1894 15.5598 32.2217 16.071 32.2199C16.9328 32.2296 17.7936 32.1557 18.6417 31.9993H18.8312L20.6307 34.2605L20.1301 34.3983C18.815 34.7275 17.4658 34.8942 16.1116 34.8947Z" fill="#F3F3F3" fill-opacity="0.1"/>
</svg>