<svg xmlns="http://www.w3.org/2000/svg" width="48" height="49" viewBox="0 0 48 49" fill="none">
<path d="M18.7238 48.9632C18.5388 48.9632 18.3615 48.8897 18.2307 48.7587C18.0999 48.6277 18.0264 48.45 18.0264 48.2647C18.0264 48.0795 18.0999 47.9018 18.2307 47.7708C18.3615 47.6398 18.5388 47.5662 18.7238 47.5662H26.6598V32.3235L9.64995 11.2059C9.5795 11.0999 9.53773 10.9775 9.52871 10.8505C9.51969 10.7236 9.54374 10.5964 9.59849 10.4815C9.65325 10.3667 9.73684 10.268 9.84108 10.1952C9.94533 10.1224 10.0667 10.0779 10.1932 10.0662H32.8045L36.7982 0.433821C36.8545 0.308165 36.9449 0.20088 37.0591 0.12418C37.1733 0.0474797 37.3067 0.00445154 37.4442 0H37.591L47.4431 2.08823C47.5331 2.10589 47.6186 2.14173 47.6943 2.19356C47.77 2.24539 47.8344 2.31213 47.8835 2.38971C47.9343 2.46561 47.9695 2.55084 47.9871 2.64044C48.0047 2.73005 48.0045 2.82225 47.9863 2.91176C47.9479 3.06757 47.8597 3.20653 47.7351 3.30743C47.6105 3.40833 47.4564 3.46563 47.2962 3.47059H47.1567L37.87 1.50001L34.3168 10.0588H44.5579C44.689 10.0625 44.8166 10.1013 44.9277 10.1711C45.0387 10.2409 45.129 10.3393 45.1893 10.4559C45.2409 10.5753 45.2599 10.7063 45.2444 10.8354C45.2289 10.9646 45.1795 11.0874 45.1012 11.1912L28.0546 32.3529V47.5662H35.9906C36.1009 47.5299 36.2181 47.5203 36.3328 47.5382C36.4475 47.5561 36.5563 47.6009 36.6503 47.6691C36.7443 47.7373 36.8209 47.8268 36.8737 47.9303C36.9264 48.0339 36.954 48.1485 36.954 48.2647C36.954 48.381 36.9264 48.4956 36.8737 48.5991C36.8209 48.7026 36.7443 48.7921 36.6503 48.8603C36.5563 48.9285 36.4475 48.9733 36.3328 48.9912C36.2181 49.0091 36.1009 48.9995 35.9906 48.9632H18.7238ZM27.3719 31.0221L38.3839 17.3676H31.3215L28.0032 25.3603C27.9459 25.4846 27.855 25.5903 27.7409 25.6657C27.6267 25.741 27.4939 25.783 27.3572 25.7868C27.2665 25.7882 27.1765 25.7706 27.0929 25.7353C26.9275 25.658 26.7968 25.5218 26.7262 25.3533C26.6556 25.1847 26.6503 24.9958 26.7112 24.8235L32.2392 11.5221H11.6835L15.2881 15.9926H26.7259L26.1312 17.3897H16.3819L27.3719 31.0221ZM33.7368 11.5147L31.8868 15.9706H39.4998L43.1043 11.4927L33.7368 11.5147Z" fill="#F3F3F3" fill-opacity="0.1"/>
<path d="M8.6894 18.7894C8.01621 18.7879 7.34539 18.7081 6.68996 18.5519C4.618 18.0531 2.79807 16.7979 1.57552 15.0244C0.352967 13.2509 -0.187147 11.0825 0.0576581 8.93066C0.302463 6.77884 1.31516 4.79332 2.90358 3.35083C4.49201 1.90834 6.54564 1.10926 8.6748 1.10522C9.34801 1.10641 10.0189 1.18613 10.6742 1.3428C12.0367 1.67241 13.3008 2.33183 14.3591 3.26505C15.4174 4.19827 16.2386 5.37769 16.7528 6.703L16.855 6.95542H15.3955L15.3444 6.85147C15.1401 6.42045 14.8957 6.01027 14.6147 5.6265L14.3374 5.23302L11.2726 8.32888L11.1485 8.15069C10.9603 7.88489 10.7312 7.65175 10.4699 7.46025L10.2948 7.33405L13.3596 4.2382L12.9801 3.95608C11.7683 3.03917 10.3017 2.53745 8.79156 2.52323H8.31723L8.98128 6.88117H8.6602C8.49143 6.88158 8.323 6.89648 8.15669 6.92572C8.04053 6.94751 7.92594 6.97727 7.81372 7.0148L7.6094 7.07421L6.94537 2.73854L6.50024 2.8796C5.12473 3.3153 3.9079 4.15784 3.00487 5.29984L2.70569 5.67847L6.48564 7.8463L6.34699 8.01706C6.14158 8.27016 5.97884 8.55616 5.86537 8.86342L5.79241 9.06386L2.02705 6.8886L1.85922 7.33405C1.7507 7.63314 1.65813 7.93796 1.58192 8.2472C1.30541 9.45107 1.32546 10.7058 1.6403 11.8999L1.76435 12.3602L5.67565 10.5487L5.73403 10.7566C5.82202 11.074 5.96002 11.3749 6.14267 11.6475L6.25943 11.8331L2.31164 13.6297L2.57434 14.0306C3.32175 15.19 4.37333 16.1132 5.60998 16.6958L6.04051 16.8889L7.20076 12.6423L7.39779 12.7388C7.69044 12.8784 8.00344 12.9686 8.32454 13.0061H8.53615L7.3759 17.2452L7.84292 17.2972C8.11638 17.3327 8.39183 17.3501 8.66751 17.3492C9.13232 17.3544 9.59656 17.3146 10.054 17.2304H10.1561L11.1267 18.4479L10.8567 18.5222C10.1474 18.6994 9.41974 18.7892 8.6894 18.7894Z" fill="#F3F3F3" fill-opacity="0.1"/>
</svg>